<?xml version="1.0" encoding="UTF-8"?>
<svg width="36px" height="36px" viewBox="0 0 36 36" version="1.1" xmlns="http://www.w3.org/2000/svg" xmlns:xlink="http://www.w3.org/1999/xlink">
    <!-- Generator: Sketch 57 (83077) - https://sketch.com -->
    <title>qq (1)</title>
    <desc>Created with Sketch.</desc>
    <g id="首页" stroke="none" stroke-width="1" fill="none" fill-rule="evenodd">
        <g id="登陆弹窗1.5" transform="translate(-695.000000, -593.000000)" fill="#25A5FD" fill-rule="nonzero">
            <g id="编组" transform="translate(110.000000, 189.000000)">
                <g id="QQ" transform="translate(585.000000, 404.000000)">
                    <g id="qq-(1)">
                        <path d="M18,0 C27.94125,0 36,8.05875001 36,18 C36,27.94125 27.94125,36 18,36 C8.05875001,36 0,27.94125 0,18 C0,8.05875001 8.05875001,0 18,0 Z M18.0358629,10.2857143 L17.7069942,10.2857143 C17.7069942,10.2857143 14.7557265,10.5323658 13.7605699,12.5877952 C12.7654132,14.6432245 12.7739638,15.5476134 12.7739638,15.5476134 C12.7739638,15.5476134 12.577958,15.9166041 12.4450951,16.5342195 C12.3122321,17.1518349 12.4450951,17.5208256 12.4450951,17.5208256 C12.4450951,17.5208256 10.7593141,19.2398223 10.8007516,20.4806439 C10.842189,21.7214655 11.1467214,22.511737 11.7873577,21.7961187 C12.4279939,21.0805004 12.4450951,21.1383813 12.4450951,21.1383813 L12.4456208,21.1740823 C12.4499678,21.3008697 12.486229,21.7423613 12.7739638,22.1249874 C13.114014,22.5771818 13.4317012,22.7827247 13.4317012,22.7827247 C13.4317012,22.7827247 11.7067849,23.6367968 12.1162264,24.7559369 C12.5256679,25.8750771 13.7875371,26.0802912 14.7471759,26.0714117 C15.7068148,26.0625323 17.7069942,25.4136743 17.7069942,25.4136743 L18.0358629,25.4136743 C18.0358629,25.4136743 20.0360423,26.0625323 20.9956812,26.0714117 C21.95532,26.0802912 23.2171892,25.8750771 23.6266308,24.7559369 C24.0360723,23.6367968 22.311156,22.7827247 22.311156,22.7827247 C22.311156,22.7827247 22.6288431,22.5771818 22.9688934,22.1249874 C23.3089436,21.6727929 23.2977621,21.1383813 23.2977621,21.1383813 C23.2977621,21.1383813 23.3148632,21.0805004 23.9554995,21.7961187 C24.5961357,22.511737 24.9006681,21.7214655 24.9421056,20.4806439 C24.983543,19.2398223 23.2977621,17.5208256 23.2977621,17.5208256 C23.2977621,17.5208256 23.430625,17.1518349 23.2977621,16.5342195 C23.1648991,15.9166041 22.9688934,15.5476134 22.9688934,15.5476134 L22.9685844,15.5314469 C22.9642698,15.4016658 22.9008934,14.4851146 21.9822873,12.5877952 C20.9871306,10.5323658 18.0358629,10.2857143 18.0358629,10.2857143 Z" id="形状结合"></path>
                    </g>
                </g>
            </g>
        </g>
    </g>
</svg>